<svg xmlns="http://www.w3.org/2000/svg" viewBox="0 0 1200 720" role="img" aria-labelledby="t d"><title id="t">Világos fürdőszoba</title><desc id="d">Ajtó, mosdó, tükrös szekrény, zuhany és törölközőtartó.</desc><defs><pattern id="tile" width="95" height="95" patternUnits="userSpaceOnUse"><rect width="95" height="95" fill="#eef7f5"/><path d="M95 0H0v95" fill="none" stroke="#d5e8e5" stroke-width="4"/></pattern><filter id="s"><feDropShadow dy="10" stdDeviation="8" flood-color="#38263d" flood-opacity=".14"/></filter></defs><path fill="url(#tile)" d="M0 0h1200v570H0z"/><path fill="#d9cedf" d="M0 570h1200v150H0z"/>
<g filter="url(#s)"><rect x="38" y="108" width="190" height="463" rx="13" fill="#684078"/><rect x="58" y="130" width="150" height="441" rx="7" fill="#8e67a0"/><circle cx="184" cy="345" r="10" fill="#c9ef57"/></g>
<g filter="url(#s)"><ellipse cx="405" cy="425" rx="145" ry="43" fill="#fff"/><path fill="#fff" d="M288 425h234l-31 147H320z"/><rect x="375" y="558" width="60" height="90" rx="18" fill="#fff"/><path fill="none" stroke="#583267" stroke-width="13" stroke-linecap="round" d="M405 392v-73q0-41 42-41q41 0 41 41"/><circle cx="405" cy="426" r="15" fill="#3f8f88"/></g>
<g filter="url(#s)"><rect x="303" y="80" width="267" height="230" rx="24" fill="#583267"/><rect x="324" y="101" width="225" height="188" rx="15" fill="#badde0"/><path fill="#fff" opacity=".6" d="M349 135q78-51 151-4q-100 18-144 85z"/><rect x="369" y="286" width="135" height="36" rx="8" fill="#79508b"/></g>
<g filter="url(#s)"><rect x="652" y="92" width="290" height="485" rx="30" fill="#c8e6e8" stroke="#3f8f88" stroke-width="11"/><path d="M797 93v484M660 262h274" stroke="#fff" stroke-width="9" opacity=".85"/><path d="M846 155q55 0 55 51" fill="none" stroke="#583267" stroke-width="13" stroke-linecap="round"/><path d="M901 205v44" stroke="#583267" stroke-width="13"/><path d="M875 259l-18 36m45-36v45m26-45l17 36" stroke="#3f8f88" stroke-width="6" stroke-linecap="round"/></g>
<g filter="url(#s)"><path d="M1005 260h128" stroke="#583267" stroke-width="17" stroke-linecap="round"/><path fill="#e97869" d="M1017 269h102v191q-50 35-102 0z"/><path stroke="#f6b2aa" stroke-width="8" d="M1021 397h94"/></g><ellipse cx="575" cy="650" rx="280" ry="45" fill="#fff" opacity=".65"/></svg>
